<?xml version="1.0" encoding="utf-8"?>
<!-- Generator: Adobe Illustrator 21.0.0, SVG Export Plug-In . SVG Version: 6.00 Build 0)  -->
<svg version="1.1" id="Layer_1" xmlns="http://www.w3.org/2000/svg" xmlns:xlink="http://www.w3.org/1999/xlink" x="0px" y="0px"
	 viewBox="0 0 2656.2 417" style="enable-background:new 0 0 2656.2 417;" xml:space="preserve">
<style type="text/css">
	.st0{fill: #49535E;}
</style>
<g>
	<path class="st0" d="M180.7,43.8L0,0c1.2,61.4,6.8,113.6,15.6,158.2h72.1c-5-22.9-8.9-47.7-11.7-74.3l86.1,20.9l18.6,4.5l18.6-4.5
		l86.1-20.9c-2.8,26.6-6.7,51.4-11.7,74.3c-0.2,1-0.4,2-0.7,3c-2.2,9.8-4.6,19.4-7.2,28.6H95.5H22.7C28.5,213,35.4,234,43,253
		c35.6,88.5,88,133,137.6,164h0.1c36.4-22.8,74.4-52.9,106.1-102.3h-85.3c-6.9,7.7-13.9,14.6-20.9,20.8
		c-19.5-17.1-38.8-39.6-55.7-71c-2-3.7-4-7.6-5.8-11.5h123.1c-1.9,3.9-3.8,7.8-5.8,11.5c-3.5,6.6-7.2,12.8-10.9,18.7h79.3
		c4.7-9.4,9.3-19.5,13.6-30.2c7.6-18.9,14.5-39.9,20.3-63.2c2.5-10.1,4.9-20.6,7.1-31.6c8.8-44.6,14.4-96.8,15.6-158.2L180.7,43.8z"
		/>
</g>
<g>
	<path class="st0" d="M481.8,273.1V124.3h26.6l66.2,88.4l65.9-88.4h26.6v148.9h-30.7V170.7l-60.5,84.5h-6.4l-61.1-82v100H481.8z"/>
	<path class="st0" d="M723.7,273.1V124.3H869v26.4H757V183h65.3v25.7H757v36.6h113.6v27.8H723.7z"/>
	<path class="st0" d="M995.4,151v122.1h-33V151h-65.3v-26.8H1061V151H995.4z"/>
	<path class="st0" d="M1079.6,273.1l80.3-148.9h31.7l81.6,148.9h-37.1l-17-32.7h-89.6l-17,32.7H1079.6z M1143.6,213.3h62.1l-31.7-62
		L1143.6,213.3z"/>
	<path class="st0" d="M1422,151.7h-88.6v92.9h88.6V213l33.3,7.4v17.6c0,13.8-2.5,23.2-7.5,28c-5,4.8-14.3,7.2-28,7.2h-84.5
		c-13.7,0-22.9-2.5-27.8-7.4c-4.9-4.9-7.4-14.2-7.4-27.8v-78.5c0-13.8,2.5-23.2,7.4-28c4.9-4.8,14.2-7.2,27.8-7.2h84.5
		c13.7,0,23,2.4,28,7.2c5,4.8,7.5,14.1,7.5,28v14.4l-33.3,5.3V151.7z"/>
	<path class="st0" d="M1505.8,273.1V124.3h33.3v121.1h106.2v27.8H1505.8z"/>
	<path class="st0" d="M1678.9,273.1V124.3h145.3v26.4h-112V183h65.3v25.7h-65.3v36.6h113.6v27.8H1678.9z"/>
	<path class="st0" d="M1849.5,273.1l80.3-148.9h31.7l81.6,148.9H2006l-17-32.7h-89.6l-17,32.7H1849.5z M1913.5,213.3h62.1l-31.7-62
		L1913.5,213.3z"/>
	<path class="st0" d="M2073.2,273.1V124.3h22.7l114.9,98.9v-98.9h29.8v148.9h-22.7l-114.6-100.3v100.3H2073.2z"/>
	<path class="st0" d="M2297.5,273.1V124.3h145.3v26.4h-112V183h65.3v25.7h-65.3v36.6h113.6v27.8H2297.5z"/>
	<path class="st0" d="M2488.5,273.1V124.3h121.9c21.1,0,31.7,9.6,31.7,28.9v35.2c0,19-10.6,28.5-31.7,28.5h-18.6l64.3,56.3h-47.4
		l-56.6-56.3h-31v56.3H2488.5z M2596.4,149.9h-75.2v41.2h75.2c10,0,15-4,15-12v-17.2C2611.4,153.9,2606.4,149.9,2596.4,149.9z"/>
</g>
</svg>
